<?xml version="1.0" encoding="utf-8"?>
<!-- Generator: Adobe Illustrator 24.3.0, SVG Export Plug-In . SVG Version: 6.00 Build 0)  -->
<svg version="1.1" id="Layer_1" xmlns="http://www.w3.org/2000/svg" xmlns:xlink="http://www.w3.org/1999/xlink" x="0px" y="0px"
	 viewBox="0 0 802.97 178.81" style="enable-background:new 0 0 802.97 178.81;" xml:space="preserve">
<g>
	<path d="M150.89,125.77c-5.38,14.05-23.88,50.34-71.41,50.34c-39.1,0-77.26-26.69-77.26-88.5c0-36.76,20.84-85.22,78.43-85.22
		c42.61,0,60.17,27.39,67.2,51.04l-30.67,7.96c-1.87-18.03-17.09-30.67-35.35-30.67c-26.93,0-46.12,20.6-46.12,57.36
		c0,22.48,9.13,58.77,45.89,58.77c21.31,0,35.12-16.39,40.04-33.25L150.89,125.77z"/>
	<path d="M275.44,171.9V96.74H204.5v75.16h-31.14V6.6h31.14v62.28h70.94V6.6h31.14v165.3H275.44z"/>
	<path d="M441.2,171.9l-9.6-32.31h-62.04l-9.6,32.31h-33.25L382.67,6.6h35.12l56.43,165.3H441.2z M400.7,36.34l-22.94,76.09h45.66
		L400.7,36.34z"/>
	<path d="M562.48,2.39c50.34,0,79.14,41.21,79.14,85.93c0,37.46-20.37,87.8-79.84,87.8c-48.7,0-78.67-40.27-78.67-86.63
		C483.11,41.02,514.72,2.39,562.48,2.39z M562.72,147.31c24.58,0,47.76-18.96,47.76-56.42c0-29.5-15.45-60.17-48.23-60.17
		c-27.16,0-47.29,21.31-47.29,57.6C514.95,114.07,527.36,147.31,562.72,147.31z"/>
	<path d="M773.2,54.83c-5.15-8.43-17.09-24.58-43.08-24.58c-7.02,0-30.9,2.58-30.9,20.14c0,12.88,12.64,15.92,30.2,19.67l17.33,3.75
		c25.99,5.62,53.62,15.69,53.62,48.93c0,40.97-40.74,53.38-70.24,53.38c-27.63,0-57.6-9.83-72.35-35.35l25.99-18.03
		c7.26,10.77,20.84,24.82,51.27,24.82c18.03,0,31.84-7.49,31.84-21.77c0-13.58-11-16.62-31.84-21.31l-21.07-4.68
		c-21.07-4.68-47.29-13.58-47.29-45.89c0-29.27,23.65-51.51,65.32-51.51c14.75,0,43.78,2.34,66.73,33.48L773.2,54.83z"/>
</g>
</svg>
