<?xml version="1.0" encoding="utf-8"?>
<!-- Generator: Adobe Illustrator 24.3.0, SVG Export Plug-In . SVG Version: 6.00 Build 0)  -->
<svg version="1.1" id="Layer_1" xmlns="http://www.w3.org/2000/svg" xmlns:xlink="http://www.w3.org/1999/xlink" x="0px" y="0px"
	 viewBox="0 0 803 176.6" style="enable-background:new 0 0 803 176.6;" xml:space="preserve">
<path d="M149.9,124.7c-5.4,14.1-23.9,50.5-71.6,50.5c-39.2,0-77.5-26.8-77.5-88.7C0.9,49.6,21.8,1,79.5,1
	c42.7,0,60.3,27.5,67.4,51.2l-30.8,8C114.2,42.1,99,29.4,80.7,29.4c-27,0-46.2,20.7-46.2,57.5c0,22.5,9.2,58.9,46,58.9
	c21.4,0,35.2-16.4,40.1-33.3L149.9,124.7z"/>
<path d="M274.8,171V95.6h-71.1V171h-31.2V5.2h31.2v62.4h71.1V5.2H306V171H274.8z"/>
<path d="M441,171l-9.6-32.4h-62.2l-9.6,32.4h-33.3L382.3,5.2h35.2L474.1,171H441z M400.4,35l-23,76.3h45.8L400.4,35z"/>
<path d="M562.6,1C613.1,1,642,42.3,642,87.2c0,37.6-20.4,88-80.1,88c-48.8,0-78.9-40.4-78.9-86.9C483,39.7,514.7,1,562.6,1z
	 M562.9,146.3c24.6,0,47.9-19,47.9-56.6c0-29.6-15.5-60.3-48.4-60.3c-27.2,0-47.4,21.4-47.4,57.7C515,113,527.4,146.3,562.9,146.3z"
	/>
<path d="M659.8,34.6C682.8,3.4,711.9,1,726.7,1c41.8,0,65.5,22.3,65.5,51.6c0,32.4-26.3,41.3-47.4,46l-21.1,4.7
	c-20.9,4.7-31.9,7.7-31.9,21.4c0,14.3,13.9,21.8,31.9,21.8c30.5,0,44.1-14.1,51.4-24.9l26.1,18.1c-14.8,25.6-44.8,35.4-72.5,35.4
	c-29.6,0-70.4-12.4-70.4-53.5c0-33.3,27.7-43.4,53.8-49.1l17.4-3.8c17.6-3.8,30.3-6.8,30.3-19.7c0-17.6-23.9-20.2-31-20.2
	c-26.1,0-38,16.2-43.2,24.6L659.8,34.6z"/>
</svg>
