<svg width="512" height="512" viewBox="0 0 512 512" fill="none" xmlns="http://www.w3.org/2000/svg">
<path d="M17.7 284.5C12.1 291 9.4 299.2 10.1 307.8C10.8 316.3 14.7 324.1 21.2 329.6L179.1 465C185 470 192.2 472.7 199.9 472.7C200.8 472.7 201.8 472.7 202.8 472.6C211.4 471.8 219.2 467.7 224.7 461L494.8 132.2C500.2 125.6 502.8 117.3 501.9 108.8C501 100.3 497 92.6 490.4 87.2L440.9 46.6C427.3 35.4 407.1 37.4 395.9 51L188 304L104.5 232.4C91.1 221 70.9 222.5 59.4 235.9L17.7 284.5Z" fill="#0A4C97"/>
</svg>
