<?xml version="1.0" encoding="utf-8"?>
<!-- Generator: Adobe Illustrator 25.1.0, SVG Export Plug-In . SVG Version: 6.00 Build 0)  -->
<svg version="1.1" id="Layer_1" xmlns="http://www.w3.org/2000/svg" xmlns:xlink="http://www.w3.org/1999/xlink" x="0px" y="0px"
	 viewBox="0 0 511 511" style="enable-background:new 0 0 511 511;" xml:space="preserve">
<style type="text/css">
	.st0{fill:#FFC107;}
	.st1{fill:#FFFFFF;stroke:#000000;stroke-miterlimit:10;}
</style>
<path class="st0" d="M509.7,196c-3.3-10.3-12.5-17.7-23.4-18.7L338.8,164L280.5,27.4c-4.3-10-14.1-16.5-25-16.5
	c-10.9,0-20.7,6.5-25,16.5L172.2,164L24.7,177.3c-10.8,1-20,8.3-23.4,18.7c-3.4,10.3-0.3,21.7,7.9,28.9l111.5,97.8L87.9,467.5
	c-2.4,10.6,1.7,21.7,10.6,28c4.7,3.4,10.3,5.2,15.9,5.2c4.8,0,9.6-1.3,13.9-3.9l127.2-76l127.2,76c9.3,5.6,21,5.1,29.9-1.3
	c8.8-6.4,13-17.4,10.6-28l-32.9-144.8l111.5-97.8C509.9,217.7,513,206.4,509.7,196z"/>
<path class="st0" d="M637.2,231.2"/>
<path class="st1" d="M510.5,196c-3.3-10.3-12.5-17.7-23.4-18.7L339.6,164L281.3,27.4c-0.4-2-1.8-7.3-6.5-11.5
	c-7.5-6.7-17.2-5.2-18.4-5c0,136.6,0,273.2,0,409.8l127.2,76c9.3,5.6,21,5.1,29.9-1.3c8.8-6.4,13-17.4,10.6-28l-32.9-144.8
	l111.5-97.8C510.7,217.7,513.9,206.4,510.5,196z"/>
</svg>
