<?xml version="1.0" encoding="utf-8"?>
<!-- Generator: Adobe Illustrator 24.3.0, SVG Export Plug-In . SVG Version: 6.00 Build 0)  -->
<svg version="1.1" id="Layer_1" xmlns="http://www.w3.org/2000/svg" xmlns:xlink="http://www.w3.org/1999/xlink" x="0px" y="0px"
	 viewBox="0 0 257.42 41" style="enable-background:new 0 0 257.42 41;" xml:space="preserve">
<style type="text/css">
	.st0{enable-background:new    ;}
	.st1{fill:#F74A4E;}
	.st2{fill:#DD8E4F;}
	.st3{fill:#FCCE38;}
	.st4{fill:#C26527;}
	.st5{fill:#69AD0B;}
	.st6{fill:#7C4226;}
	.st7{fill:#A5FF00;}
	.st8{fill:#F3AE61;}
</style>
<g class="st0">
	<path class="st1" d="M30.29,24.45c0,2.94-0.05,4.41-0.59,6.12c-1.13,3.48-5.1,7.94-13.57,7.94c-5.54,0-11.37-2.16-13.18-7.84
		c-0.54-1.76-0.54-3.38-0.54-7.06V3.04h6.52V24.3c0,2.06,0,2.79,0.34,3.82c0.64,2.06,2.5,4.12,7.1,4.12c0.83,0,5.59,0,7.01-3.92
		c0.39-1.13,0.44-2.06,0.44-4.36V3.04h6.47V24.45z"/>
</g>
<g class="st0">
	<path class="st2" d="M43.03,13.13v3.48c1.86-3.87,6.12-4.02,7.3-4.02h0.49v6.03c-1.22,0-5.93,0-7.35,4.51
		c-0.44,1.37-0.44,2.6-0.44,4.02v10.49h-5.68v-24.5H43.03z"/>
</g>
<g class="st0">
	<path class="st3" d="M70.61,20.82c-1.32-2.6-3.82-3.72-6.66-3.72c-1.13,0-4.07,0.34-4.07,2.55c0,1.62,1.47,2.11,5,2.74l3.97,0.73
		c3.72,0.69,6.57,2.89,6.57,6.86c0,4.51-4.26,8.38-11.02,8.38c-6.76,0-10.39-2.99-11.76-4.41l4.41-3.58
		c1.18,1.57,3.38,3.14,7.06,3.14c3.53,0,4.8-1.81,4.8-2.89c0-1.42-1.37-1.96-3.62-2.35l-3.04-0.54c-1.91-0.34-8.53-1.57-8.53-7.35
		c0-4.85,4.66-7.99,10.53-7.99c1.91,0,6.86,0.29,10.53,4.56L70.61,20.82z"/>
</g>
<g class="st0">
	<path class="st4" d="M101.58,8.82v8.62h14.45v5.54h-14.45v14.65h-6.42V3.04h22.88v5.78H101.58z"/>
</g>
<g class="st0">
	<path class="st5" d="M121.92,9.31V3.38h5.83v5.93H121.92z M121.92,37.63v-24.5h5.83v24.5H121.92z"/>
</g>
<g class="st0">
	<path class="st6" d="M150.04,20.82c-1.32-2.6-3.82-3.72-6.66-3.72c-1.13,0-4.07,0.34-4.07,2.55c0,1.62,1.47,2.11,5,2.74l3.97,0.73
		c3.72,0.69,6.57,2.89,6.57,6.86c0,4.51-4.26,8.38-11.02,8.38c-6.76,0-10.39-2.99-11.76-4.41l4.41-3.58
		c1.18,1.57,3.38,3.14,7.06,3.14c3.53,0,4.8-1.81,4.8-2.89c0-1.42-1.37-1.96-3.63-2.35l-3.04-0.54c-1.91-0.34-8.53-1.57-8.53-7.35
		c0-4.85,4.65-7.99,10.53-7.99c1.91,0,6.86,0.29,10.53,4.56L150.04,20.82z"/>
</g>
<g class="st0">
	<path class="st1" d="M180.86,30.72c-1.71,4.85-6.17,7.64-11.07,7.64c-7.2,0-12.1-5.68-12.1-12.98c0-6.37,4.31-12.98,12.4-12.98
		c6.37,0,9.6,4.66,10.53,6.96l-5.24,2.45c-0.69-2.11-2.4-4.16-5.59-4.16c-3.97,0-6.03,3.53-6.03,7.59c0,4.26,2.21,7.64,6.17,7.64
		c4.16,0,5.49-3.62,5.93-4.8L180.86,30.72z"/>
</g>
<g class="st0">
	<path class="st3" d="M201.54,37.63V23.27c0-3.58-1.76-5.29-4.61-5.29c-3.18,0-6.12,2.4-6.12,6.08v13.57h-5.88V3.04h5.88v12.59
		c1.47-1.52,4.12-3.23,7.74-3.23c5.34,0,8.77,3.04,8.77,8.67v16.56H201.54z"/>
</g>
<g class="st0">
	<path class="st7" d="M218.3,26.56c0.1,1.22,1.23,6.08,6.91,6.08c4.16,0,5.93-2.55,6.42-3.38l5,2.89
		c-1.96,2.65-5.54,6.22-11.96,6.22c-7.3,0-12.59-5-12.59-13.13c0-8.77,5.93-12.84,12.3-12.84c9.36,0,12.05,7.5,12.05,14.16H218.3z
		 M229.96,22.24c-0.1-1.22-0.88-5.14-5.49-5.14c-4.85,0-5.78,4.17-5.98,5.14H229.96z"/>
</g>
<g class="st0">
	<path class="st8" d="M246.77,13.13v3.48c1.86-3.87,6.12-4.02,7.3-4.02h0.49v6.03c-1.22,0-5.93,0-7.35,4.51
		c-0.44,1.37-0.44,2.6-0.44,4.02v10.49h-5.68v-24.5H246.77z"/>
</g>
</svg>
